<svg width="50" height="50" viewBox="0 0 50 50" fill="none" xmlns="http://www.w3.org/2000/svg">
<path d="M34.6473 26.456C35.7748 26.456 36.692 25.5387 36.692 24.4112C36.692 24.067 36.413 23.7881 36.0688 23.7881C35.7247 23.7881 35.4456 24.067 35.4456 24.4112C35.4456 24.8515 35.0875 25.2096 34.6473 25.2096C34.2071 25.2096 33.8489 24.8514 33.8489 24.4112C33.8489 24.067 33.5699 23.7881 33.2257 23.7881C32.8815 23.7881 32.6025 24.067 32.6025 24.4112C32.6025 25.5387 33.5197 26.456 34.6473 26.456Z" fill="white"/>
<path d="M37.9144 22.9607C38.2586 22.9607 38.5376 22.6818 38.5376 22.3376V21.6864C38.8453 21.6483 39.0835 21.386 39.0835 21.068C39.0835 20.7238 38.8045 20.4448 38.4603 20.4448H37.9144C37.5703 20.4448 37.2913 20.7238 37.2913 21.068V22.3376C37.2913 22.6818 37.5703 22.9607 37.9144 22.9607Z" fill="white"/>
<path d="M30.7567 21.6864V22.3376C30.7567 22.6818 31.0357 22.9607 31.3799 22.9607C31.724 22.9607 32.003 22.6818 32.003 22.3376V21.068C32.003 20.7238 31.724 20.4448 31.3799 20.4448H30.834C30.4898 20.4448 30.2108 20.7238 30.2108 21.068C30.2108 21.3859 30.449 21.6483 30.7567 21.6864Z" fill="white"/>
<path d="M43.9609 22.4494C44.1377 22.0751 44.2372 21.6573 44.2372 21.2166C44.2372 20.4832 43.9626 19.813 43.5115 19.3022C43.5831 19.2008 43.6255 19.0773 43.6255 18.9436C43.6255 17.103 43.7174 16.0115 43.1637 14.4283C43.05 14.1035 42.6946 13.9319 42.3697 14.0458C42.0448 14.1594 41.8736 14.5149 41.9872 14.8398C42.4398 16.1336 42.3791 17.031 42.3791 18.3204C41.5843 18.3204 39.443 18.3204 38.5403 18.3204C36.7372 18.3204 35.2703 16.8536 35.2702 15.0506C35.2702 14.7064 34.9912 14.4274 34.6471 14.4274C34.3029 14.4274 34.0239 14.7064 34.0239 15.0506C34.0239 16.8536 32.557 18.3204 30.7539 18.3204H28.0462H26.9151V17.1595C26.9151 13.2868 30.0658 10.1361 33.9385 10.1361C33.9856 10.1361 34.0239 10.1744 34.0239 10.2215C34.0239 10.5657 34.3029 10.8446 34.6471 10.8446C34.9912 10.8446 35.2702 10.5657 35.2702 10.2215C35.2702 10.1744 35.3085 10.1361 35.3557 10.1361C37.3859 10.1362 39.3161 11.0146 40.6515 12.5461C40.8777 12.8055 41.2714 12.8323 41.5308 12.6063C41.7902 12.3801 41.8171 11.9865 41.5909 11.7271C40.0188 9.92405 37.7462 8.88993 35.3557 8.88985C35.0955 8.88985 34.8525 8.96488 34.6472 9.09441C34.4419 8.96488 34.1988 8.88985 33.9386 8.88985C29.3786 8.88985 25.6688 12.5997 25.6688 17.1596V18.9437C25.6688 19.0773 25.7113 19.2008 25.7828 19.3023C25.5736 19.5392 25.4023 19.8101 25.279 20.1061C25.2041 19.1871 24.7405 18.3801 24.0483 17.8522V15.4781C24.0483 10.8039 20.2456 7.00117 15.5714 7.00117C14.4108 7.00117 14.8758 6.98115 13.2706 7.10661C11.0563 7.27943 9.07469 8.46435 7.87515 10.3077L5.99852 9.70794C5.60967 9.5833 5.20594 9.86198 5.18633 10.2718C5.17744 10.4596 4.98941 14.6327 5.75034 17.5394C4.71364 18.0594 4 19.132 4 20.3687C4 21.9735 5.20112 23.3031 6.75163 23.5056C7.1419 25.18 8.06384 26.7 9.3827 27.8272C9.72852 28.1228 10.0975 28.3858 10.4839 28.617H9.17257C7.01801 28.617 5.26518 30.3699 5.26518 32.5244L5.18633 46.1232C5.18633 46.4674 5.46534 46.7463 5.80949 46.7463H6.84469C7.18884 46.7463 7.46785 46.4674 7.46785 46.1232C7.46785 45.7789 7.18884 45.5 6.84469 45.5H6.43266L6.51151 32.5244C6.51151 31.057 7.70524 29.8633 9.17257 29.8633H10.9854C11.2951 31.7007 12.9568 33.0822 14.8982 32.9569C16.6556 32.8437 18.048 31.5214 18.3277 29.8633H20.1408C21.6081 29.8633 22.8019 31.057 22.8019 32.5244L22.7231 45.5H9.75286C9.40871 45.5 9.1297 45.7789 9.1297 46.1232C9.1297 46.4674 9.40871 46.7463 9.75286 46.7463H23.3463C23.6905 46.7463 23.9695 46.4674 23.9695 46.1232L24.0484 32.5244C24.0484 32.0055 23.9458 31.5103 23.7614 31.0569H24.7626C25.3895 31.0569 25.9874 30.9316 26.5339 30.7061C26.1494 31.3006 25.9252 32.0081 25.9252 32.7671L25.8464 46.1232C25.8464 46.4674 26.1254 46.7463 26.4695 46.7463H42.7091C43.0533 46.7463 43.3323 46.4674 43.3323 46.1232L43.4111 32.7671C43.4111 32.0174 43.1925 31.3182 42.8167 30.7282C43.348 30.9395 43.9264 31.0569 44.5321 31.0569H45.918C46.2621 31.0569 46.5412 30.7779 46.5412 30.4337V26.6171C46.5412 24.8419 45.5123 23.2278 43.9609 22.4494ZM30.7541 19.5668C32.4103 19.5668 33.8612 18.6708 34.6472 17.3378C35.4333 18.6708 36.8841 19.5668 38.5404 19.5668H41.3411C42.2508 19.5668 42.9909 20.3069 42.9909 21.2166C42.9909 21.6615 42.8132 22.065 42.526 22.3619C42.1979 22.7009 41.7429 22.8836 41.2749 22.8646C40.9598 22.8501 40.6858 23.0742 40.634 23.3844C40.1599 26.2188 37.708 28.4458 34.6472 28.4458C32.4848 28.4458 30.4648 27.3026 29.378 25.4014C29.3678 25.3757 29.3562 25.3505 29.3426 25.3263C29.0889 24.8711 28.8965 24.3903 28.768 23.8914C28.7654 23.8814 28.7634 23.8713 28.7609 23.8613C28.7255 23.7208 28.6918 23.5716 28.6605 23.3843C28.6087 23.0748 28.3336 22.8502 28.0196 22.8645C27.087 22.9024 26.3036 22.1501 26.3036 21.2165C26.3036 20.3067 27.0438 19.5667 27.9534 19.5667C27.9761 19.5667 27.9987 19.5677 28.0212 19.5685C28.0478 19.5696 28.074 19.5689 28.0999 19.5667L30.7541 19.5668ZM34.6575 32.3135C33.4718 32.3135 32.5071 31.3488 32.5071 30.1631V29.583V29.3735C33.2144 29.5905 33.953 29.6923 34.6472 29.6923C35.3641 29.6923 36.1108 29.5835 36.8077 29.3673V30.1632C36.8077 31.3119 35.9024 32.2531 34.7679 32.3107C34.7313 32.3126 34.6945 32.3135 34.6575 32.3135ZM29.7317 28.9598C29.3046 28.96 28.8934 29.0319 28.5098 29.1624C28.8949 28.6417 29.1738 28.0383 29.3154 27.3842C29.4982 27.5789 29.6915 27.7649 29.896 27.9397C30.3172 28.2997 30.7756 28.6076 31.2608 28.8608V28.9598H29.7317ZM38.0541 28.8506C38.7595 28.4796 39.405 27.9956 39.979 27.3843C40.1189 28.0306 40.3932 28.6273 40.7713 29.1437C40.0599 28.9139 39.6886 28.9598 38.0542 28.9598L38.0541 28.8506ZM6.41089 11.1481L7.96538 11.6449C8.24863 11.7352 8.55656 11.6131 8.70047 11.3527C9.65523 9.62551 11.4 8.50258 13.3676 8.34911C14.9342 8.22681 14.4592 8.24741 15.5714 8.24741C19.5583 8.24741 22.8019 11.491 22.8019 15.478V17.2781C22.2574 17.1609 22.4296 17.2076 13.8832 17.2076C13.2618 17.2076 12.6667 17.0695 12.1304 16.8201C10.9507 16.2716 10.056 15.1845 9.79391 13.845C9.69378 13.3332 9.06381 13.1792 8.7273 13.5389C7.82837 14.4999 7.19989 15.6383 6.85865 16.8197C6.43016 14.8814 6.39552 12.408 6.41089 11.1481ZM7.88163 22.8038C7.8312 22.5024 7.57038 22.2834 7.26728 22.2834C7.25889 22.2834 7.25041 22.2836 7.24194 22.2839C7.21593 22.285 7.18992 22.286 7.16367 22.286C6.10645 22.286 5.24632 21.4259 5.24632 20.3687C5.24632 19.3293 6.07488 18.4891 7.09404 18.4531C7.09653 18.453 7.09911 18.453 7.1016 18.453C7.14796 18.4516 7.19433 18.4516 7.24044 18.4535L7.24343 18.4535L7.24916 18.4535C7.56 18.4631 7.8302 18.241 7.88163 17.9337C8.0223 17.0926 8.31768 16.2924 8.7509 15.5671C8.8128 15.4635 8.87753 15.3613 8.94499 15.2609C9.8028 17.166 11.7207 18.454 13.8832 18.454H22.2165C22.519 18.4679 22.8345 18.5592 23.1061 18.721C23.111 18.7239 23.1161 18.7258 23.121 18.7286C23.6762 19.0643 24.0441 19.6725 24.0441 20.3686C24.0441 21.4259 23.184 22.2859 22.1268 22.2859C22.1005 22.2859 22.0744 22.2848 22.0484 22.2838C21.7349 22.2726 21.4606 22.494 21.4087 22.8037C20.844 26.1807 17.938 28.5219 14.6452 28.5219C11.327 28.522 8.44239 26.1567 7.88163 22.8038ZM14.5317 31.7161C13.3123 31.6551 12.318 30.7066 12.1932 29.497C12.1923 29.4879 12.1918 29.4787 12.191 29.4695C12.1885 29.4426 12.1864 29.4155 12.1849 29.3884C13.0055 29.6503 13.8612 29.7682 14.6453 29.7682C15.4442 29.7682 16.3069 29.6461 17.1295 29.3806C17.0542 30.7378 15.8907 31.784 14.5317 31.7161ZM20.1409 28.617H18.8067C19.1931 28.3858 19.5621 28.1228 19.9079 27.8272C21.2267 26.7 22.1487 25.1801 22.5389 23.5056C23.6972 23.3543 24.6604 22.5739 25.0735 21.5197C25.1079 21.849 25.1977 22.1621 25.3335 22.4494C23.7821 23.2278 22.7532 24.8418 22.7532 26.6171V29.6215C22.0605 28.9975 21.1444 28.617 20.1409 28.617ZM23.9996 29.8105V26.6171C23.9996 25.2305 24.8562 23.9774 26.1202 23.4585C26.5342 23.7965 27.0326 24.0089 27.531 24.0821C27.6749 24.6833 27.9015 25.2704 28.1751 25.788V26.3977C28.1751 28.2795 26.6442 29.8105 24.7624 29.8105L23.9996 29.8105ZM42.0859 45.5H27.0926L27.1715 32.7671C27.1715 31.355 28.3204 30.2061 29.7326 30.2061H31.2612C31.2841 32.0463 32.7885 33.5598 34.6575 33.5598C36.5051 33.5598 38.0305 32.0695 38.0539 30.2061H39.6036C41.0158 30.2061 42.1646 31.355 42.1646 32.7671L42.0859 45.5ZM45.2948 29.8105H44.5319C42.6501 29.8105 41.1192 28.2796 41.1192 26.3978V25.7881C41.3969 25.2628 41.6213 24.6757 41.7633 24.0822C42.2315 24.0135 42.7036 23.8232 43.1143 23.5042C43.1341 23.4889 43.1546 23.4746 43.1741 23.4587C44.4382 23.9775 45.2948 25.2305 45.2948 26.6171V29.8105Z" fill="white"/>
<path d="M14.6452 26.1619C15.865 26.1619 16.8573 25.1696 16.8573 23.9498C16.8573 23.6056 16.5783 23.3267 16.2341 23.3267C15.89 23.3267 15.611 23.6056 15.611 23.9498C15.611 24.4823 15.1778 24.9156 14.6452 24.9156C14.1127 24.9156 13.6794 24.4823 13.6794 23.9498C13.6794 23.6056 13.4004 23.3267 13.0563 23.3267C12.7121 23.3267 12.4331 23.6056 12.4331 23.9498C12.4332 25.1695 13.4255 26.1619 14.6452 26.1619Z" fill="white"/>
<path d="M10.9933 19.6108C10.6491 19.6108 10.3701 19.8898 10.3701 20.234V21.6118C10.3701 21.956 10.6491 22.2349 10.9933 22.2349C11.3374 22.2349 11.6164 21.956 11.6164 21.6118V20.234C11.6164 19.8898 11.3374 19.6108 10.9933 19.6108Z" fill="white"/>
<path d="M18.2971 22.2349C18.6413 22.2349 18.9203 21.956 18.9203 21.6118V20.234C18.9203 19.8898 18.6413 19.6108 18.2971 19.6108C17.953 19.6108 17.674 19.8898 17.674 20.234V21.6118C17.674 21.956 17.953 22.2349 18.2971 22.2349Z" fill="white"/>
</svg>
