<svg width="50" height="50" viewBox="0 0 50 50" fill="none" xmlns="http://www.w3.org/2000/svg">
<g clip-path="url(#clip0)">
<path d="M30.7663 35.3208H28.0254C27.6209 35.3208 27.293 35.6487 27.293 36.0532C27.293 36.4578 27.6209 36.7857 28.0254 36.7857H30.7663C31.1708 36.7857 31.4987 36.4578 31.4987 36.0532C31.4987 35.6487 31.1708 35.3208 30.7663 35.3208Z" fill="white"/>
<path d="M46.8994 27.4799L42.911 25.9415L40.8775 23.908C40.7469 23.7774 40.5787 23.7067 40.4068 23.6957V22.0776C41.3652 21.0557 42.0474 19.7617 42.3227 18.3039C42.4936 18.3116 42.6662 18.2978 42.8364 18.2631C43.8109 18.0635 44.5182 17.1593 44.5182 16.1132V15.5792C44.5182 14.974 44.2728 14.4185 43.8732 14.0213C44.52 10.5038 43.9873 7.63714 42.3257 5.71848C40.7186 3.86271 38.1293 2.97569 34.8382 3.15372C31.7976 3.31808 29.8347 4.71711 29.2128 5.22893C28.8724 5.26936 28.2925 5.38889 27.7056 5.74104C26.8921 6.22913 25.9224 7.25442 25.9224 9.36703C25.9224 11.21 26.217 12.7487 26.4303 13.6216C25.7154 13.9699 25.2372 14.7246 25.2372 15.5874V16.1131C25.2372 17.1592 25.9445 18.0634 26.919 18.263C27.0892 18.2978 27.2619 18.3115 27.4327 18.3038C27.708 19.7616 28.3903 21.0556 29.3486 22.0775V23.6956C29.1768 23.7066 29.0084 23.7773 28.8779 23.9079L26.8444 25.9414L22.856 27.4798C22.511 27.6128 22.1814 27.7854 21.8765 27.9925C21.542 28.2198 21.455 28.6753 21.6823 29.0099C21.824 29.2185 22.0544 29.3308 22.2887 29.3308C22.4304 29.3308 22.5736 29.2897 22.6997 29.2041C22.9123 29.0597 23.1423 28.9394 23.3832 28.8464L27.0847 27.4187L29.9147 31.6639C30.2655 32.1902 30.8278 32.5278 31.4572 32.5901C31.5272 32.597 31.5973 32.6004 31.6668 32.6004C32.0312 32.6004 32.3847 32.5046 32.6976 32.3276L32.0902 46.1038C32.0724 46.5079 32.3856 46.85 32.7898 46.8678C32.8007 46.8682 32.8116 46.8684 32.8226 46.8684C33.2122 46.8684 33.5364 46.5613 33.5537 46.1682L34.1174 33.381H35.6379L36.2016 46.1682C36.2189 46.5614 36.5431 46.8684 36.9327 46.8684C36.9437 46.8684 36.9546 46.8682 36.9656 46.8678C37.3697 46.85 37.6828 46.5079 37.6651 46.1038L37.0577 32.3276C37.3706 32.5046 37.724 32.6004 38.0885 32.6004C38.158 32.6004 38.2281 32.597 38.2981 32.5901C38.9275 32.5278 39.4897 32.1902 39.8406 31.6639L42.6707 27.4187L46.3721 28.8464C46.8913 29.0466 47.3381 29.366 47.6895 29.7646L45.1572 32.2969C44.2422 33.2118 43.7384 34.4283 43.7384 35.722V46.1361C43.7384 46.5406 44.0664 46.8685 44.4709 46.8685C44.8753 46.8685 45.2033 46.5406 45.2033 46.1361V35.722C45.2033 34.8196 45.5547 33.9709 46.1929 33.3327L48.4154 31.1103C48.5047 31.4377 48.5464 31.782 48.5323 32.1339L47.965 46.1064C47.9486 46.5106 48.263 46.8515 48.6671 46.868C48.6772 46.8684 48.6873 46.8686 48.6973 46.8686C49.0881 46.8686 49.4127 46.5599 49.4286 46.166L49.9961 32.1931C50.0792 30.1204 48.8347 28.2264 46.8994 27.4799ZM28.8665 18.0018C28.7373 17.2986 28.0861 16.7875 27.3833 16.8395C27.3277 16.8435 27.2705 16.8396 27.2129 16.8279C26.9217 16.7683 26.702 16.461 26.702 16.1132V15.5873C26.702 15.2475 26.9291 14.9415 27.2188 14.8906C27.4634 14.8476 27.6975 14.9374 27.8457 15.1306C27.9802 15.3059 28.1596 15.4313 28.3643 15.493C28.6643 15.5837 28.9951 15.5304 29.2494 15.3509C29.7074 15.0276 30.1115 14.6326 30.4505 14.1767C30.6919 13.8521 30.6243 13.3933 30.2998 13.152C29.9751 12.9106 29.5164 12.9781 29.275 13.3027C29.1059 13.53 28.9149 13.7364 28.7047 13.919C28.4725 13.7204 28.2012 13.5768 27.9104 13.4949C27.7223 12.774 27.3873 11.2295 27.3873 9.36683C27.3873 8.24505 27.7331 7.45686 28.415 7.02425C28.9472 6.68665 29.5103 6.67317 29.51 6.67307C29.6972 6.67307 29.8794 6.59934 30.0153 6.47073C30.0332 6.45393 31.8337 4.78303 34.9171 4.61633C37.7396 4.46398 39.9185 5.17648 41.2182 6.67727C42.5282 8.18997 42.9644 10.5123 42.4912 13.4191C42.295 13.4122 42.0802 13.427 41.8664 13.4626L41.1784 11.8101C41.0379 11.473 40.6702 11.291 40.3168 11.3831C40.2488 11.4008 33.485 13.1155 30.6489 9.58461C30.3957 9.26927 29.9348 9.21888 29.6192 9.4722C29.3039 9.72553 29.2535 10.1865 29.5069 10.5019C32.403 14.1076 38.1495 13.3232 40.0624 12.9407L40.5946 14.2185C40.8234 14.7678 41.4087 15.0678 41.9857 14.9318C42.2225 14.876 42.4488 14.8748 42.5337 14.8916C42.8299 14.9505 43.0533 15.246 43.0533 15.579V16.1131C43.0533 16.461 42.8336 16.7682 42.5424 16.8278C42.4849 16.8396 42.4274 16.8435 42.372 16.8394C41.6693 16.7882 41.0181 17.2984 40.8888 18.0018C40.356 20.9026 37.828 23.0081 34.8777 23.0081C31.9273 23.0081 29.3993 20.9026 28.8665 18.0018ZM32.1156 30.9488C31.9299 31.1345 31.714 31.1436 31.6017 31.1324C31.4895 31.1214 31.2794 31.07 31.1337 30.8515L28.2826 26.5749L29.4292 25.4283L33.8062 29.2582L32.1156 30.9488ZM34.1819 31.9162L34.2263 30.9096L34.8776 30.2583L35.5288 30.9096L35.5732 31.9162H34.1819ZM34.8777 28.2492L30.8135 24.6931V23.2913C31.9951 24.0428 33.3932 24.4729 34.8777 24.4729C36.3621 24.4729 37.7603 24.0428 38.9419 23.2913V24.6931L34.8777 28.2492ZM38.6218 30.8515C38.476 31.0701 38.2659 31.1214 38.1538 31.1324C38.0414 31.1436 37.8255 31.1345 37.6398 30.9487L35.9492 29.2581L40.3262 25.4282L41.4728 26.5748L38.6218 30.8515Z" fill="white"/>
<path d="M23.2271 31.3181L19.6507 29.757L17.6957 27.8021C17.5648 27.671 17.3964 27.6007 17.225 27.5897V26.4375C18.8958 25.3395 20.1185 23.5933 20.5114 21.5126C20.7038 21.5212 20.898 21.5027 21.0894 21.4575C22.0266 21.2357 22.7068 20.3376 22.7068 19.3219V18.788C22.7068 18.046 22.3386 17.3785 21.7682 16.9869C21.936 16.3222 22.0215 15.6422 22.0215 14.9578C22.0215 11.9234 20.3813 9.25071 17.9089 7.71613C17.8826 5.1836 15.7209 3.13086 13.0663 3.13086C10.4117 3.13086 8.2501 5.1836 8.22373 7.71613C5.75145 9.25071 4.11121 11.9235 4.11121 14.9578C4.11121 15.6402 4.19618 16.3182 4.36297 16.981C3.79285 17.3707 3.42596 18.0413 3.42596 18.796V19.3219C3.42596 20.3376 4.10614 21.2357 5.04335 21.4575C5.23475 21.5028 5.42889 21.5212 5.62138 21.5126C6.01425 23.5933 7.23701 25.3395 8.90781 26.4375V27.5897C8.73643 27.6007 8.56807 27.671 8.43711 27.8021L6.48212 29.757L2.90584 31.3181C1.0862 32.1124 -0.0798178 33.9788 0.00426452 35.9625L0.436786 46.167C0.453485 46.5605 0.777803 46.8684 1.16804 46.8684C1.17849 46.8684 1.18903 46.8682 1.19958 46.8678C1.60378 46.8507 1.91746 46.5092 1.90037 46.105L1.46775 35.9004C1.43991 35.2429 1.61081 34.6049 1.9321 34.0558L3.85447 36.3626C4.462 37.0916 4.79647 38.0157 4.79647 38.9645V46.136C4.79647 46.5405 5.1244 46.8684 5.5289 46.8684C5.93339 46.8684 6.26132 46.5405 6.26132 46.136V38.9645C6.26132 37.6737 5.80614 36.4166 4.97977 35.4249L2.93611 32.9725C3.10984 32.8528 3.29451 32.7467 3.49188 32.6606L6.60868 31.3L8.81123 34.8751C9.02871 35.2282 9.38829 35.4675 9.79786 35.532C9.87149 35.5436 9.94532 35.5493 10.0189 35.5493C10.3537 35.5493 10.6799 35.4306 10.9385 35.2099L12.3342 34.019V46.1359C12.3342 46.5404 12.6621 46.8683 13.0666 46.8683C13.4711 46.8683 13.799 46.5404 13.799 46.1359V34.0192L15.1947 35.2101C15.4532 35.4308 15.7794 35.5494 16.1143 35.5494C16.1877 35.5494 16.2617 35.5437 16.3353 35.5322C16.7449 35.4677 17.1044 35.2284 17.3219 34.8753L19.5245 31.3001L22.6413 32.6607C22.8385 32.7468 23.0233 32.8529 23.197 32.9726L21.1534 35.425C20.327 36.4166 19.8718 37.6738 19.8718 38.9646V46.1361C19.8718 46.5406 20.1998 46.8685 20.6042 46.8685C21.0087 46.8685 21.3367 46.5406 21.3367 46.1361V38.9646C21.3367 38.0158 21.6712 37.0917 22.2787 36.3627L24.201 34.0559C24.5223 34.605 24.6932 35.243 24.6654 35.9005L24.2329 46.1051C24.2158 46.5092 24.5295 46.8507 24.9337 46.8679C24.9442 46.8683 24.9547 46.8685 24.9652 46.8685C25.3554 46.8685 25.6798 46.5607 25.6965 46.1671L26.129 35.9626C26.213 33.9789 25.0468 32.1124 23.2271 31.3181ZM13.0665 4.59571C14.6247 4.59571 15.9394 5.58976 16.3282 6.93664C15.317 6.55499 14.2168 6.34513 13.0665 6.34513C11.9162 6.34513 10.816 6.55499 9.80489 6.93664C10.1937 5.58976 11.5082 4.59571 13.0665 4.59571ZM7.05527 21.2107C6.92617 20.5073 6.27392 19.9964 5.57216 20.0483C5.50995 20.0527 5.44569 20.0474 5.38085 20.032C5.10155 19.9659 4.8909 19.6606 4.8909 19.3219V18.796C4.8909 18.4562 5.11796 18.1502 5.4077 18.0993C5.65224 18.0563 5.88632 18.1462 6.03437 18.3392C6.16884 18.5146 6.34824 18.64 6.55322 18.7019C6.85312 18.7925 7.18408 18.7393 7.43818 18.5597C7.88926 18.2414 8.28809 17.8533 8.62363 17.4064C8.86651 17.083 8.80117 16.6238 8.47773 16.381C8.1542 16.1381 7.69511 16.2035 7.45224 16.5269C7.28613 16.7481 7.09912 16.9492 6.89345 17.1278C6.58007 16.8598 6.19579 16.692 5.78817 16.6412C5.64784 16.0895 5.57606 15.5253 5.57606 14.9579C5.57606 11.0166 8.93623 7.81008 13.0665 7.81008C17.1967 7.81008 20.5569 11.0165 20.5569 14.9579C20.5569 15.5243 20.4855 16.0873 20.3457 16.6379C20.1529 16.6533 19.957 16.6848 19.7756 16.7319L19.225 16.2792C18.9484 16.0516 18.6001 15.9377 18.2477 15.9587C17.1711 16.0223 11.6576 16.1679 8.82891 12.7826C8.56953 12.4722 8.10771 12.4308 7.79726 12.6902C7.48681 12.9495 7.44551 13.4115 7.70488 13.7218C9.1 15.3915 11.1462 16.5205 13.7865 17.0775C15.8081 17.504 17.6052 17.4626 18.3093 17.4224L19.1683 18.1288C19.4047 18.3232 19.7363 18.3506 20.001 18.1965C20.1252 18.1289 20.5413 18.0642 20.7228 18.1004C21.019 18.1593 21.2422 18.4548 21.2422 18.788V19.3219C21.2422 19.6607 21.0316 19.966 20.7523 20.032C20.6875 20.0473 20.6232 20.0529 20.561 20.0482C19.8596 19.9972 19.207 20.5073 19.0778 21.2106C18.545 24.1115 16.0169 26.217 13.0666 26.217C10.1162 26.217 7.58808 24.1115 7.05527 21.2107ZM10.0295 34.06L7.82656 30.4842L8.95508 29.3557L11.9881 32.3887L10.0295 34.06ZM13.0665 31.3954L10.3728 28.7017V27.1864C11.2137 27.5065 12.1224 27.6818 13.0665 27.6818C14.0107 27.6818 14.9194 27.5065 15.7603 27.1865V28.7017L13.0665 31.3954ZM16.1035 34.06L14.1449 32.3887L17.178 29.3557L18.3065 30.4842L16.1035 34.06Z" fill="white"/>
<path d="M10.3256 38.5513H8.2699C7.86541 38.5513 7.53748 38.8792 7.53748 39.2837C7.53748 39.6882 7.86541 40.0161 8.2699 40.0161H10.3256C10.7301 40.0161 11.058 39.6882 11.058 39.2837C11.058 38.8792 10.7301 38.5513 10.3256 38.5513Z" fill="#282828"/>
</g>
<defs>
<clipPath id="clip0">
<rect width="50" height="50" fill="white"/>
</clipPath>
</defs>
</svg>
